<svg width="414" height="24" viewBox="0 0 414 24" fill="none" xmlns="http://www.w3.org/2000/svg">
<path d="M279 12C279 15.1826 277.736 18.2348 275.485 20.4853C273.235 22.7357 270.183 24 267 24C263.817 24 260.765 22.7357 258.515 20.4853C256.264 18.2348 255 15.1826 255 12L267 12H279Z" fill="white"/>
<path d="M87 12C87 15.1826 85.7357 18.2348 83.4853 20.4853C81.2348 22.7357 78.1826 24 75 24C71.8174 24 68.7652 22.7357 66.5147 20.4853C64.2643 18.2348 63 15.1826 63 12L75 12H87Z" fill="white"/>
<path d="M375 12C375 15.1826 373.736 18.2348 371.485 20.4853C369.235 22.7357 366.183 24 363 24C359.817 24 356.765 22.7357 354.515 20.4853C352.264 18.2348 351 15.1826 351 12L363 12H375Z" fill="white"/>
<path d="M183 12C183 15.1826 181.736 18.2348 179.485 20.4853C177.235 22.7357 174.183 24 171 24C167.817 24 164.765 22.7357 162.515 20.4853C160.264 18.2348 159 15.1826 159 12L171 12H183Z" fill="white"/>
<path d="M303 12C303 15.1826 301.736 18.2348 299.485 20.4853C297.235 22.7357 294.183 24 291 24C287.817 24 284.765 22.7357 282.515 20.4853C280.264 18.2348 279 15.1826 279 12L291 12H303Z" fill="white"/>
<path d="M111 12C111 15.1826 109.736 18.2348 107.485 20.4853C105.235 22.7357 102.183 24 99 24C95.8174 24 92.7652 22.7357 90.5147 20.4853C88.2643 18.2348 87 15.1826 87 12L99 12H111Z" fill="white"/>
<path d="M399 12C399 15.1826 397.736 18.2348 395.485 20.4853C393.235 22.7357 390.183 24 387 24C383.817 24 380.765 22.7357 378.515 20.4853C376.264 18.2348 375 15.1826 375 12L387 12H399Z" fill="white"/>
<path d="M15 12C15 15.1826 13.7357 18.2348 11.4853 20.4853C9.23485 22.7357 6.1826 24 3 24C-0.182597 24 -3.23484 22.7357 -5.48528 20.4853C-7.73572 18.2348 -9 15.1826 -9 12L3 12H15Z" fill="white"/>
<path d="M207 12C207 15.1826 205.736 18.2348 203.485 20.4853C201.235 22.7357 198.183 24 195 24C191.817 24 188.765 22.7357 186.515 20.4853C184.264 18.2348 183 15.1826 183 12L195 12H207Z" fill="white"/>
<path d="M327 12C327 15.1826 325.736 18.2348 323.485 20.4853C321.235 22.7357 318.183 24 315 24C311.817 24 308.765 22.7357 306.515 20.4853C304.264 18.2348 303 15.1826 303 12L315 12H327Z" fill="white"/>
<path d="M135 12C135 15.1826 133.736 18.2348 131.485 20.4853C129.235 22.7357 126.183 24 123 24C119.817 24 116.765 22.7357 114.515 20.4853C112.264 18.2348 111 15.1826 111 12L123 12H135Z" fill="white"/>
<path d="M423 12C423 15.1826 421.736 18.2348 419.485 20.4853C417.235 22.7357 414.183 24 411 24C407.817 24 404.765 22.7357 402.515 20.4853C400.264 18.2348 399 15.1826 399 12L411 12H423Z" fill="white"/>
<path d="M39 12C39 15.1826 37.7357 18.2348 35.4853 20.4853C33.2348 22.7357 30.1826 24 27 24C23.8174 24 20.7652 22.7357 18.5147 20.4853C16.2643 18.2348 15 15.1826 15 12L27 12H39Z" fill="white"/>
<path d="M231 12C231 15.1826 229.736 18.2348 227.485 20.4853C225.235 22.7357 222.183 24 219 24C215.817 24 212.765 22.7357 210.515 20.4853C208.264 18.2348 207 15.1826 207 12L219 12H231Z" fill="white"/>
<path d="M351 12C351 15.1826 349.736 18.2348 347.485 20.4853C345.235 22.7357 342.183 24 339 24C335.817 24 332.765 22.7357 330.515 20.4853C328.264 18.2348 327 15.1826 327 12L339 12H351Z" fill="white"/>
<path d="M159 12C159 15.1826 157.736 18.2348 155.485 20.4853C153.235 22.7357 150.183 24 147 24C143.817 24 140.765 22.7357 138.515 20.4853C136.264 18.2348 135 15.1826 135 12L147 12H159Z" fill="white"/>
<path d="M63 12C63 15.1826 61.7357 18.2348 59.4853 20.4853C57.2348 22.7357 54.1826 24 51 24C47.8174 24 44.7652 22.7357 42.5147 20.4853C40.2643 18.2348 39 15.1826 39 12L51 12H63Z" fill="white"/>
<path d="M255 12C255 15.1826 253.736 18.2348 251.485 20.4853C249.235 22.7357 246.183 24 243 24C239.817 24 236.765 22.7357 234.515 20.4853C232.264 18.2348 231 15.1826 231 12L243 12H255Z" fill="white"/>
</svg>
