<svg width="36" height="36" viewBox="0 0 36 36" fill="none" xmlns="http://www.w3.org/2000/svg">
<path d="M23.1443 16.1803L22.3875 16.1777C22.3677 16.1777 22.3486 16.1854 22.3345 16.1993C22.3203 16.2132 22.3122 16.2321 22.3119 16.2519L22.3064 17.9053L21.5386 17.9027L21.5442 16.2502C21.5443 16.2304 21.5365 16.2113 21.5226 16.1972C21.5088 16.183 21.4899 16.1749 21.47 16.1746L20.715 16.1721C20.6951 16.172 20.6759 16.1799 20.6617 16.194C20.6475 16.2081 20.6395 16.2272 20.6395 16.2472L20.6251 20.505C20.625 20.5467 20.6585 20.5804 20.7002 20.5805L21.457 20.5831C21.477 20.5831 21.4962 20.5753 21.5104 20.5612C21.5245 20.5471 21.5325 20.528 21.5326 20.508L21.5384 18.7956L22.3061 18.7982L22.3003 20.5097C22.3002 20.5514 22.3336 20.5851 22.3754 20.5853L23.1322 20.5878C23.152 20.5879 23.1711 20.5801 23.1852 20.5662C23.1994 20.5524 23.2075 20.5335 23.2078 20.5136L23.2221 16.2559C23.2222 16.236 23.2144 16.217 23.2005 16.2028C23.1866 16.1887 23.1677 16.1806 23.1479 16.1803L23.1443 16.1803ZM16.7213 16.1587L15.9482 16.1561C15.9294 16.1555 15.9111 16.1621 15.8971 16.1745C15.8831 16.1869 15.8743 16.2043 15.8726 16.223L15.8624 19.2602C15.8685 19.3844 15.8305 19.5068 15.7551 19.6056L15.7578 19.6029C15.7255 19.6382 15.6862 19.6664 15.6424 19.6857C15.5986 19.7049 15.5512 19.7148 15.5033 19.7146C15.4555 19.7145 15.4082 19.7043 15.3645 19.6848C15.3208 19.6652 15.2817 19.6368 15.2496 19.6012C15.1785 19.5034 15.1433 19.384 15.15 19.2633L15.1603 16.2206C15.1601 16.2027 15.1529 16.1856 15.1402 16.173C15.1275 16.1603 15.1103 16.1532 15.0924 16.1532L14.312 16.1506C14.303 16.1497 14.2938 16.1506 14.2851 16.1532C14.2764 16.1559 14.2683 16.1602 14.2613 16.166C14.2542 16.1718 14.2484 16.1789 14.2442 16.187C14.2399 16.195 14.2373 16.2039 14.2365 16.2129L14.2262 19.2629L14.2263 19.2547C14.1996 19.6203 14.3164 19.981 14.5496 20.2604L14.5469 20.2576C14.7965 20.5099 15.1399 20.6471 15.4948 20.6347L15.5057 20.6347C15.8605 20.6486 16.2048 20.5146 16.4561 20.2641L16.4534 20.2668C16.6894 19.9872 16.8077 19.6273 16.7835 19.2633L16.7937 16.2261C16.7924 16.2078 16.7842 16.1906 16.7708 16.1781C16.7573 16.1656 16.7397 16.1587 16.7213 16.1587ZM9.24321 16.0609L9.23776 16.0609C9.06233 16.0537 8.8873 16.0829 8.72372 16.1467C8.56014 16.2105 8.41155 16.3075 8.2873 16.4316L8.29551 16.4207C8.05501 16.6967 7.93039 17.0556 7.94912 17.4214L7.94299 19.2445L7.94301 19.2363C7.91638 19.6019 8.03313 19.9626 8.26632 20.242L8.2627 20.2392C8.51231 20.4914 8.85578 20.6287 9.21064 20.6163L9.22425 20.6163C9.57903 20.6302 9.92341 20.4962 10.1747 20.2457C10.4107 19.966 10.529 19.6062 10.5048 19.2422L10.5081 18.2513C10.5073 18.2311 10.4987 18.2121 10.4842 18.198C10.4698 18.1839 10.4505 18.176 10.4303 18.1757L9.31415 18.1719C9.2937 18.172 9.27403 18.1798 9.25903 18.1937C9.24403 18.2076 9.23479 18.2266 9.23313 18.247L9.23063 18.9893C9.23321 19.0337 9.26667 19.0674 9.31114 19.0676L9.61786 19.0686L9.61728 19.2392C9.62336 19.3671 9.58547 19.4931 9.50991 19.5964L9.51264 19.5937C9.47988 19.635 9.43748 19.6678 9.38916 19.6889C9.34085 19.7101 9.28807 19.7192 9.23545 19.7153L9.23092 19.7152C9.17872 19.7196 9.12625 19.7111 9.07808 19.6906C9.02991 19.67 8.98749 19.638 8.95453 19.5973C8.87653 19.4958 8.83737 19.3698 8.84411 19.2421L8.85019 17.4362L8.85018 17.4389C8.84541 17.3079 8.88732 17.1794 8.96846 17.0764C9.00122 17.035 9.04361 17.0023 9.09193 16.9811C9.14025 16.9599 9.19303 16.9509 9.24565 16.9548L9.25109 16.9548C9.30329 16.9504 9.35576 16.9589 9.40393 16.9795C9.4521 17 9.49451 17.0321 9.52747 17.0728L9.5329 17.0783C9.60303 17.1847 9.63492 17.3119 9.62334 17.4388L9.62277 17.6067C9.62537 17.6457 9.65885 17.674 9.69787 17.6741L10.4547 17.6767C10.4937 17.6768 10.5274 17.6488 10.5302 17.6098L10.5308 17.4337L10.5308 17.4392C10.5523 17.0737 10.4293 16.7145 10.1884 16.4389L10.1911 16.4389C10.0674 16.3144 9.91946 16.2165 9.7564 16.1515C9.59334 16.0865 9.41867 16.0557 9.24321 16.0609ZM19.628 18.301L19.6335 18.2956C19.8647 18.0749 19.9955 17.7705 19.9966 17.451L19.9965 17.4619C20.0032 17.1362 19.8889 16.8196 19.6755 16.5733L19.6755 16.5761C19.5589 16.4449 19.4155 16.3404 19.2549 16.2695C19.0943 16.1987 18.9204 16.1632 18.7449 16.1655L17.5389 16.1614C17.5191 16.1613 17.5001 16.1691 17.4859 16.183C17.4718 16.1969 17.4637 16.2158 17.4634 16.2356L17.449 20.4934C17.4489 20.5351 17.4824 20.5688 17.5241 20.5689L18.7918 20.5732C19.1739 20.5799 19.5401 20.4169 19.787 20.1246L19.7843 20.1273C19.983 19.8658 20.083 19.543 20.0669 19.2154L20.0668 19.2263C20.068 18.866 19.9067 18.5279 19.628 18.301ZM18.3626 17.0599L18.7447 17.0611L18.7419 17.0611C18.7889 17.058 18.836 17.0653 18.8798 17.0823C18.9237 17.0994 18.9632 17.1259 18.9957 17.16L19.0011 17.1655C19.0669 17.2558 19.0984 17.3665 19.0899 17.4779L19.0899 17.4725C19.0987 17.5919 19.0645 17.7106 18.9935 17.807L18.9935 17.8043C18.9625 17.84 18.9236 17.868 18.8799 17.8863C18.8363 17.9046 18.789 17.9125 18.7418 17.9096L18.3598 17.9083L18.3626 17.0599ZM19.0629 19.575L19.0656 19.5723C19.0313 19.6129 18.9877 19.6447 18.9385 19.6649C18.8893 19.6851 18.836 19.6931 18.783 19.6884L18.3529 19.6869L18.356 18.7659L18.7916 18.7673L18.7888 18.7673C18.8418 18.7631 18.895 18.7716 18.9441 18.7921C18.9931 18.8126 19.0365 18.8446 19.0707 18.8853L19.0679 18.8826C19.1422 18.978 19.1795 19.0971 19.173 19.2178L19.173 19.2205C19.1768 19.3461 19.137 19.4692 19.0602 19.5686L19.0629 19.575ZM13.1393 18.6558L13.142 18.6531C13.2203 18.5998 13.2904 18.5365 13.355 18.4668L13.3523 18.4723C13.5846 18.2053 13.7073 17.8609 13.6958 17.5079L13.6958 17.4997C13.7032 17.1506 13.5775 16.8118 13.3442 16.552L13.3578 16.5684C13.2432 16.4384 13.1032 16.3331 12.9465 16.2591C12.7898 16.185 12.6195 16.1438 12.4463 16.1379L11.1759 16.1337C11.156 16.1336 11.137 16.1413 11.1229 16.1552C11.1087 16.1691 11.1006 16.188 11.1003 16.2078L11.086 20.4711C11.0858 20.5128 11.1193 20.5465 11.161 20.5466L11.9188 20.5492C11.9386 20.5492 11.9576 20.5415 11.9718 20.5276C11.9859 20.5137 11.994 20.4948 11.9943 20.475L11.9996 18.897L12.2791 18.8979L12.751 20.5075C12.7557 20.523 12.7653 20.5365 12.7784 20.5461C12.7915 20.5556 12.8073 20.5606 12.8235 20.5604L13.6275 20.5631C13.6394 20.5631 13.6512 20.5603 13.6619 20.555C13.6727 20.5497 13.682 20.542 13.6893 20.5324C13.6947 20.5221 13.6976 20.5106 13.6976 20.4989C13.6977 20.4872 13.6949 20.4757 13.6895 20.4653L13.1393 18.6558ZM12.6764 17.8702C12.638 17.9111 12.5911 17.9432 12.539 17.9642C12.4869 17.9852 12.4308 17.9945 12.3747 17.9917L12.0027 17.9904L12.0059 17.0385L12.3743 17.0397C12.4304 17.0373 12.4864 17.0471 12.5383 17.0685C12.5902 17.0898 12.6369 17.1221 12.6752 17.1632L12.6752 17.1614C12.7538 17.256 12.7941 17.3765 12.7884 17.4994L12.7884 17.5048C12.7973 17.6368 12.756 17.7673 12.6728 17.8701L12.6764 17.8702ZM29.2842 18.3335L29.2897 18.328C29.5209 18.1074 29.6517 17.8029 29.6528 17.4835L29.6528 17.4998C29.6654 17.1664 29.5507 16.8406 29.3319 16.5886L29.3373 16.5968C29.2207 16.4656 29.0772 16.3611 28.9166 16.2902C28.7561 16.2194 28.5822 16.1839 28.4067 16.1862L27.1952 16.1821C27.1754 16.182 27.1564 16.1898 27.1422 16.2037C27.1281 16.2175 27.12 16.2364 27.1197 16.2563L27.1053 20.5249C27.1052 20.5667 27.1386 20.6004 27.1804 20.6005L28.4417 20.6048C28.6305 20.6086 28.8178 20.5704 28.99 20.4928C29.1621 20.4152 29.3148 20.3002 29.4369 20.1562L29.4342 20.1589C29.6329 19.8973 29.7329 19.5746 29.7168 19.2469L29.7167 19.2524C29.7175 19.0756 29.6786 18.9009 29.6028 18.7413C29.527 18.5816 29.4163 18.441 29.2788 18.3298L29.2842 18.3335ZM28.018 17.0923L28.4 17.0936L28.3973 17.0936C28.4442 17.0905 28.4913 17.0977 28.5352 17.1148C28.579 17.1319 28.6186 17.1584 28.651 17.1925L28.6565 17.1979C28.7224 17.2881 28.7537 17.3991 28.7443 17.5104L28.7444 17.505C28.7532 17.6244 28.719 17.7431 28.648 17.8395L28.648 17.8368C28.6169 17.8724 28.578 17.9005 28.5344 17.9188C28.4907 17.937 28.4435 17.945 28.3962 17.9421L28.0142 17.9408L28.0171 17.0923L28.018 17.0923ZM28.7191 19.6075L28.7219 19.6048C28.6876 19.6454 28.644 19.6771 28.5948 19.6974C28.5456 19.7176 28.4922 19.7256 28.4393 19.7209L28.0091 19.7194L28.0122 18.7984L28.4478 18.7998L28.4451 18.7998C28.4981 18.7956 28.5513 18.8041 28.6003 18.8246C28.6494 18.8451 28.6928 18.8771 28.7269 18.9178L28.7242 18.9151C28.7985 19.0105 28.8358 19.1296 28.8292 19.2503L28.8292 19.253C28.8331 19.3786 28.7932 19.5016 28.7164 19.6011L28.7191 19.6075ZM26.3767 16.1911L25.5981 16.1885C25.589 16.1876 25.5799 16.1885 25.5711 16.1912C25.5624 16.1938 25.5543 16.1982 25.5473 16.204C25.5403 16.2098 25.5345 16.2169 25.5302 16.2249C25.526 16.233 25.5234 16.2418 25.5225 16.2509L25.5123 19.2918C25.5187 19.4135 25.4827 19.5336 25.4104 19.6317C25.3782 19.6671 25.3388 19.6953 25.295 19.7145C25.2512 19.7338 25.2038 19.7436 25.156 19.7435C25.1081 19.7433 25.0608 19.7331 25.0171 19.7136C24.9734 19.6941 24.9343 19.6656 24.9023 19.63C24.8311 19.5322 24.7959 19.4129 24.8027 19.2921L24.8129 16.2521C24.8113 16.2334 24.8027 16.216 24.7887 16.2035C24.7748 16.191 24.7566 16.1843 24.7378 16.1847L23.9619 16.1821C23.9432 16.1815 23.9249 16.1881 23.9109 16.2006C23.8968 16.213 23.8881 16.2303 23.8864 16.249L23.8761 19.2954C23.8495 19.6528 23.9663 20.0126 24.1995 20.2928L24.2076 20.301C24.4697 20.5379 24.8109 20.6683 25.1642 20.6664C25.5175 20.6646 25.8573 20.5307 26.117 20.2911L26.106 20.2993C26.342 20.0196 26.4603 19.6598 26.4361 19.2958L26.4463 16.2585C26.445 16.2407 26.4372 16.2239 26.4244 16.2115C26.4115 16.1991 26.3945 16.1918 26.3767 16.1911Z" fill="black"/>
<rect x="2.15937" y="1.72721" width="31.8601" height="32.1828" rx="5.10512" transform="rotate(0.192728 2.15937 1.72721)" stroke="black" stroke-width="3" stroke-linecap="round" stroke-linejoin="round"/>
</svg>
