                <svg class="logo-img" viewBox="33.3298 50.1562 125.2145 127.6099" xmlns="http://www.w3.org/2000/svg">
                    <path id="path0"
                        d="M 204 77.6 C 204.175 77.826 207.453 79.26 209.776 80.31 C 216.265 83.245 239.413 93.366 248.8 97.374 C 253.42 99.346 258.64 101.601 260.4 102.385 C 262.16 103.168 266.66 105.141 270.4 106.769 C 283.144 112.315 281.623 110.751 286.605 123.428 C 289.063 129.683 293.84 142 297.222 150.8 C 310.97 186.577 313.828 191.233 314.206 193 C 314.443 194.107 314.467 194.423 314.189 195.8 C 313.83 197.58 311.549 200.13 297.184 234 C 291.586 247.2 286.212 259.8 285.242 262 C 284.272 264.2 282.643 268.096 281.623 270.658 C 279.381 276.286 279.049 276.516 265.091 282.11 C 258.991 284.554 252.56 287.203 250.8 287.995 C 249.04 288.787 238.96 292.931 228.4 297.203 C 217.84 301.475 207.4 305.782 205.2 306.775 C 198.762 309.68 198.132 309.743 193.93 307.914 C 191.769 306.973 188.56 305.571 186.8 304.799 C 185.04 304.027 176.4 300.25 167.6 296.405 C 158.8 292.561 150.16 288.774 148.4 287.99 C 146.64 287.207 143.76 285.973 142 285.249 C 140.24 284.524 137.18 283.208 135.2 282.323 C 133.22 281.439 128.589 279.384 124.909 277.757 L 118.606 274.85 L 117.898 274.112 L 115.517 267.856 C 111.199 256.852 95.346 215.612 91.444 205.2 C 89.466 199.92 87.021 194.707 86.91 193.89 C 86.798 193.064 86.788 191.048 86.787 190.4 C 86.786 189.694 86.964 191.345 100.437 159.6 C 123.17 106.039 120.792 111.024 124.432 109.298 C 126.174 108.472 137.5 103.756 149.6 98.817 C 161.7 93.878 178.08 87.187 186 83.948 C 193.92 80.709 200.298 77.504 200.667 77.43 C 202.256 77.112 202.084 77.058 204 77.6 M 192.249 90.232 C 187.326 92.255 183.477 94.201 183.696 94.556 C 184.292 95.52 219.004 95.364 219.603 94.394 C 219.877 93.951 219.449 93.365 218.651 93.091 C 217.853 92.818 213.959 91.2 209.999 89.497 C 201.411 85.804 203.202 85.73 192.249 90.232 M 177.8 96.221 C 176.81 96.674 175.994 97.439 175.987 97.922 C 175.979 98.405 175.889 112.84 175.787 130 L 175.6 161.2 L 171.4 161.442 L 167.2 161.684 L 167.2 131.689 C 167.2 100.957 167.101 99.998 164.13 102.079 C 162.41 103.283 162.4 103.465 162.4 132.445 L 162.4 161.6 L 158.4 161.6 L 154.4 161.6 L 154.4 134.447 C 154.4 105.215 154.415 105.31 150.178 107.784 L 147.6 109.289 L 147.389 135.445 L 147.178 161.6 L 143.189 161.6 L 139.2 161.6 L 139.2 137.113 L 139.2 112.627 L 137.004 113.178 C 132.647 114.271 132.762 113.468 132.989 141.107 L 133.2 166.8 L 178.353 167.007 C 204.515 167.127 223.811 166.909 224.23 166.49 C 224.628 166.092 224.915 156.639 224.869 145.483 C 224.774 122.802 224.732 122.994 229.679 123.348 L 233.2 123.6 L 233.2 146 L 233.2 168.4 L 230.2 168.648 C 226.484 168.956 226.487 169.048 230.347 173.235 L 233.494 176.649 L 233.572 230.883 C 233.656 289.486 233.489 286.272 236.397 284.947 L 238.4 284.034 L 238.4 231.617 C 238.4 202.788 238.656 179.2 238.97 179.2 C 239.283 179.2 241.083 180.715 242.97 182.567 L 246.4 185.933 L 246.4 232.967 C 246.4 284.15 246.151 281.45 250.653 279.08 C 253.581 277.539 253.575 277.62 253.588 236.2 C 253.595 212.431 253.899 196 254.332 196 C 254.735 196 256.5 197.631 258.255 199.625 L 261.446 203.25 L 261.558 238.159 C 261.681 276.067 261.573 274.743 264.429 273.441 L 266.4 272.543 L 266.521 243.272 C 266.587 227.172 266.568 213.043 266.479 211.873 C 266.213 208.38 267.666 208.575 271.117 212.496 L 274.376 216.198 L 274.588 239.3 C 274.705 252.006 275.114 262.419 275.497 262.441 C 275.881 262.463 278.49 256.973 281.295 250.241 C 284.1 243.508 286.746 237.28 287.176 236.4 C 289.352 231.941 304.8 194.883 304.8 194.122 C 304.8 193.636 302.07 186.21 298.734 177.619 C 288.238 150.595 277.689 123.116 276.516 119.749 C 274.874 115.033 274.361 120.824 274.424 143.375 C 274.496 169.39 274.559 169.036 269.905 168.655 L 266.8 168.4 L 266.589 143.4 L 266.377 118.4 L 223.589 118.4 L 180.8 118.4 L 180.8 114.408 L 180.8 110.416 L 217.4 110.208 C 241.412 110.072 253.884 109.725 253.663 109.2 C 253.478 108.76 250.673 107.23 247.431 105.8 L 241.535 103.2 L 211.168 103.2 L 180.8 103.2 L 180.8 99.647 C 180.8 95.6 180.331 95.064 177.8 96.221 M 246.212 145.8 L 246 168.4 L 242.4 168.4 L 238.8 168.4 L 238.587 146.812 C 238.339 121.751 238.081 123.2 242.787 123.2 L 246.425 123.2 L 246.212 145.8 M 261.2 146 L 261.2 168.4 L 257.6 168.4 L 254 168.4 L 253.787 145.756 L 253.575 123.111 L 257.387 123.356 L 261.2 123.6 L 261.2 146 M 118.814 137.398 C 116.257 143.449 110.078 157.976 105.083 169.679 C 100.087 181.382 96 191.702 96 192.611 C 96 194.164 97.647 198.668 107.184 223.2 C 111.851 235.206 120.031 256.516 122.008 261.818 C 124.238 267.799 124.415 266.143 124.163 241.733 C 123.9 216.34 123.853 216.588 128.879 216.948 L 132.4 217.2 L 132.61 244.585 L 132.821 271.97 L 135.171 273.185 C 136.463 273.853 137.894 274.4 138.35 274.4 C 138.904 274.4 139.25 264.879 139.39 245.8 L 139.6 217.2 L 143.4 216.956 L 147.2 216.712 L 147.212 246.956 C 147.225 278.386 147.221 278.339 150.263 279.942 C 154.455 282.151 154.4 282.571 154.4 248.381 L 154.4 216.712 L 158.2 216.956 L 162 217.2 L 162.209 250.914 L 162.417 284.627 L 164.423 285.942 C 167.277 287.811 167.176 288.979 167.399 251.2 L 167.6 217.2 L 169.8 216.947 C 172.518 216.634 172.556 216.001 170 213.6 C 168.9 212.567 168 211.424 168 211.061 C 168 210.697 179.7 210.4 194 210.4 L 220 210.4 L 220 214.4 L 220 218.4 L 198 218.4 C 183.875 218.4 175.995 218.686 175.987 219.2 C 175.98 219.64 175.974 235.66 175.974 254.8 C 175.974 273.94 175.98 289.913 175.987 290.295 C 176.003 291.162 196.755 300.325 198.4 300.192 C 199.06 300.139 203.56 298.432 208.4 296.4 C 213.24 294.367 218.64 292.132 220.4 291.432 C 222.16 290.732 223.877 289.918 224.216 289.623 C 224.657 289.24 225.08 208.204 224.808 176.206 C 224.802 175.428 214.447 175.168 177.088 175.006 L 129.376 174.8 L 126.888 171.726 L 124.4 168.652 L 124.316 147.909 C 124.27 136.5 124.059 126.992 123.847 126.781 C 123.636 126.569 121.371 131.347 118.814 137.398 M 219.842 186.2 L 220.084 190.4 L 182.672 190.4 L 145.261 190.4 L 141.83 187.033 C 136.158 181.466 133.344 181.828 181.6 181.924 L 219.6 182 L 219.842 186.2 M 219.842 199.4 L 219.6 203.6 L 190.038 203.81 L 160.475 204.02 L 156.638 200.24 C 154.527 198.161 152.8 196.177 152.8 195.83 C 152.8 195.484 167.939 195.2 186.442 195.2 L 220.084 195.2 L 219.842 199.4"
                        stroke="none" fill="yellow"
                        transform="matrix(0.5501430034637451, 0, 0, 0.5501430034637451, -14.415488243103027, 7.6901478767395055)" />
                </svg>