<svg width="60" height="60" viewBox="0 0 60 60" fill="none" xmlns="http://www.w3.org/2000/svg">
<path d="M54.375 12H45V6C45 2.6875 42.4805 0 39.375 0H20.625C17.5195 0 15 2.6875 15 6V12H5.625C2.51953 12 0 14.6875 0 18V54C0 57.3125 2.51953 60 5.625 60H54.375C57.4805 60 60 57.3125 60 54V18C60 14.6875 57.4805 12 54.375 12ZM22.5 8H37.5V12H22.5V8ZM41.25 39C41.25 39.55 40.8281 40 40.3125 40H33.75V47C33.75 47.55 33.3281 48 32.8125 48H27.1875C26.6719 48 26.25 47.55 26.25 47V40H19.6875C19.1719 40 18.75 39.55 18.75 39V33C18.75 32.45 19.1719 32 19.6875 32H26.25V25C26.25 24.45 26.6719 24 27.1875 24H32.8125C33.3281 24 33.75 24.45 33.75 25V32H40.3125C40.8281 32 41.25 32.45 41.25 33V39Z" fill="black"/>
</svg>
